<?xml version="1.0" encoding="UTF-8"?>
<svg width="16px" height="16px" viewBox="0 0 16 16" version="1.1" xmlns="http://www.w3.org/2000/svg" xmlns:xlink="http://www.w3.org/1999/xlink">
    <title>76DA8F76-8142-4C20-A85E-F5E4B0A7B9DE@1x</title>
    <g id="Symbols" stroke="none" stroke-width="1" fill="none" fill-rule="evenodd">
        <g id="cog-regular" fill="#363638">
            <path d="M14.1133871,7.38709677 L15.1405806,6.79412903 C15.4446452,6.6186129 15.5920645,6.26051613 15.501129,5.92141935 C15.1332581,4.54945161 14.4094516,3.32312903 13.4347419,2.34732258 C13.187,2.09932258 12.8032903,2.04906452 12.4997419,2.2243871 L11.4744194,2.81658065 C11.1413443,2.57821994 10.7859263,2.372741 10.4131613,2.20303226 L10.4131613,1.01745161 C10.4131199,0.666328743 10.1769347,0.359137147 9.8376129,0.268870968 C8.49048387,-0.0894193548 7.05964516,-0.0898709677 5.71083871,0.26883871 C5.37151613,0.359096774 5.13522581,0.666290323 5.13522581,1.01741935 L5.13522581,2.203 C4.76246083,2.37270874 4.40704275,2.57818769 4.07396774,2.81654839 L3.04864516,2.22435484 C2.74509677,2.04903226 2.3613871,2.09929032 2.11364516,2.34729032 C1.13893548,3.32309677 0.415129032,4.5493871 0.0472580645,5.9213871 C-0.0436774194,6.26048387 0.103741935,6.61858065 0.407806452,6.79409677 L1.435,7.38709677 C1.39564519,7.79474053 1.39564519,8.20522722 1.435,8.61287097 L0.407806452,9.20583871 C0.103741935,9.38135484 -0.0436774194,9.73945161 0.0472580645,10.0785484 C0.415129032,11.4505161 1.13893548,12.6768387 2.11364516,13.6526452 C2.3613871,13.9006452 2.74509677,13.9509032 3.04864516,13.7755806 L4.07396774,13.1833871 C4.40703593,13.4217493 4.76245522,13.6272181 5.13522581,13.7969032 L5.13522581,14.9824839 C5.13526724,15.3336067 5.37145239,15.6407983 5.71077419,15.7310645 C7.05790323,16.0893548 8.48874194,16.0898387 9.83754839,15.7310968 C10.176871,15.6408387 10.4131613,15.3336452 10.4131613,14.9825161 L10.4131613,13.7969355 C10.785919,13.6272254 11.141336,13.421758 11.4744194,13.1834194 L12.4997419,13.7756129 C12.8032903,13.9509355 13.187,13.9006774 13.4347419,13.6526774 C14.4094516,12.676871 15.1332581,11.4505484 15.501129,10.0785806 C15.5920645,9.73948387 15.4446452,9.3813871 15.1405806,9.20587097 L14.1133871,8.61290323 C14.1527419,8.20483871 14.1527419,7.79516129 14.1133871,7.38709677 Z M12.4140645,9.41996774 L13.8275806,10.2357419 C13.5733176,10.9224444 13.2040823,11.5608859 12.7356774,12.1237419 L11.3218387,11.3073226 C10.2900968,12.1910968 10.1392903,12.2775484 8.86480645,12.7276129 L8.86480645,14.3598387 C8.14295233,14.4830648 7.40543477,14.4830648 6.68358065,14.3598387 L6.68358065,12.7276129 C5.40925806,12.2776129 5.25790323,12.1907742 4.22654839,11.3073226 L2.81270968,12.1237419 C2.34431101,11.5608816 1.97507629,10.9224412 1.72080645,10.2357419 L3.13432258,9.41996774 C2.88819355,8.08774194 2.88806452,7.91290323 3.13432258,6.58003226 L1.72080645,5.76425806 C1.97403226,5.07945161 2.34370968,4.44009677 2.81270968,3.87622581 L4.22654839,4.69264516 C5.25829032,3.80887097 5.40912903,3.7223871 6.68358065,3.27235484 L6.68358065,1.64016129 C7.40543477,1.51693523 8.14295233,1.51693523 8.86480645,1.64016129 L8.86480645,3.2723871 C10.139129,3.7223871 10.2904839,3.80922581 11.3218387,4.69267742 L12.7356774,3.87625806 C13.2040829,4.4391256 13.5733181,5.07757782 13.8275806,5.76429032 L12.4140645,6.58006452 C12.6602258,7.91232258 12.6603226,8.08709677 12.4140645,9.41996774 Z M7.77419355,4.90322581 C6.0666129,4.90322581 4.67741935,6.29241935 4.67741935,8 C4.67741935,9.70758065 6.0666129,11.0967742 7.77419355,11.0967742 C9.48177419,11.0967742 10.8709677,9.70758065 10.8709677,8 C10.8709677,6.29241935 9.48177419,4.90322581 7.77419355,4.90322581 Z M7.77419355,9.5483871 C6.9203871,9.5483871 6.22580645,8.85380645 6.22580645,8 C6.22580645,7.14622581 6.9203871,6.4516129 7.77419355,6.4516129 C8.628,6.4516129 9.32258065,7.14622581 9.32258065,8 C9.32258065,8.85380645 8.628,9.5483871 7.77419355,9.5483871 Z" id="Shape"></path>
        </g>
    </g>
</svg>