<?xml version="1.0" encoding="UTF-8"?>
<svg width="16px" height="16px" viewBox="0 0 16 16" version="1.1" xmlns="http://www.w3.org/2000/svg" xmlns:xlink="http://www.w3.org/1999/xlink">
    <title>B864CBEE-C731-4F29-9F9F-C416A6BAC068@1x</title>
    <g id="Symbols" stroke="none" stroke-width="1" fill="none" fill-rule="evenodd">
        <g id="envelope-regular" fill="#008759" transform="translate(0.000000, 2.000000)">
            <path d="M14,0 L2,0 C0.8953125,0 0,0.8953125 0,2 L0,10 C0,11.1046875 0.8953125,12 2,12 L14,12 C15.1046875,12 16,11.1046875 16,10 L16,2 C16,0.8953125 15.103125,0 14,0 Z M2,1.5 L14,1.5 C14.2756875,1.5 14.5,1.7243125 14.5,2 L14.5,2.6925 L9.2875,7.008125 C8.5628125,7.610625 7.433125,7.6103125 6.7103125,7.0086125 L1.5,2.69375 L1.5,2 C1.5,1.725 1.724375,1.5 2,1.5 Z M14,10.5 L2,10.5 C1.7243125,10.5 1.5,10.2756875 1.5,10 L1.5,4.646875 L5.753125,8.190625 C6.384375,8.7125 7.18125,9 8,9 C8.81875,9 9.6171875,8.712875 10.2490625,8.188125 L14.5,4.646875 L14.5,10 C14.5,10.275 14.275,10.5 14,10.5 Z" id="Shape"></path>
        </g>
    </g>
</svg>